<?xml version="1.0" encoding="UTF-8" standalone="no"?>
<svg
   height="384"
   viewBox="0 0 384 384"
   width="384"
   version="1.1"
   id="svg145"
   sodipodi:docname="welcome.svg"
   inkscape:version="1.2.1 (9c6d41e410, 2022-07-14, custom)"
   xmlns:inkscape="http://www.inkscape.org/namespaces/inkscape"
   xmlns:sodipodi="http://sodipodi.sourceforge.net/DTD/sodipodi-0.dtd"
   xmlns:xlink="http://www.w3.org/1999/xlink"
   xmlns="http://www.w3.org/2000/svg"
   xmlns:svg="http://www.w3.org/2000/svg">
  <defs
     id="defs149" />
  <sodipodi:namedview
     id="namedview147"
     pagecolor="#ffffff"
     bordercolor="#000000"
     borderopacity="0.25"
     inkscape:showpageshadow="2"
     inkscape:pageopacity="0.0"
     inkscape:pagecheckerboard="0"
     inkscape:deskcolor="#d1d1d1"
     showgrid="false"
     inkscape:zoom="1.3037281"
     inkscape:cx="92.04373"
     inkscape:cy="171.04793"
     inkscape:window-width="1680"
     inkscape:window-height="985"
     inkscape:window-x="0"
     inkscape:window-y="0"
     inkscape:window-maximized="1"
     inkscape:current-layer="svg145" />
  <clipPath
     id="a">
    <path
       d="M 8,28 H 120 V 44 H 8 Z m 0,0"
       id="path2" />
  </clipPath>
  <clipPath
     id="b">
    <path
       d="m 16,28 h 96 c 4.41797,0 8,3.582031 8,8 v 72 c 0,4.41797 -3.58203,8 -8,8 H 16 c -4.417969,0 -8,-3.58203 -8,-8 V 36 c 0,-4.417969 3.582031,-8 8,-8 z m 0,0"
       id="path5" />
  </clipPath>
  <filter
     id="c"
     height="1"
     width="1"
     x="0"
     y="0">
    <feColorMatrix
       in="SourceGraphic"
       type="matrix"
       values="0 0 0 0 1 0 0 0 0 1 0 0 0 0 1 0 0 0 1 0"
       id="feColorMatrix8" />
  </filter>
  <mask
     id="d">
    <g
       filter="url(#c)"
       id="g13">
      <rect
         fill-opacity="0.7"
         height="128"
         width="128"
         id="rect11"
         x="0"
         y="0" />
    </g>
  </mask>
  <clipPath
     id="e">
    <path
       d="m 16,44 h 40 v 74 H 16 Z m 0,0"
       id="path16" />
  </clipPath>
  <clipPath
     id="f">
    <path
       d="m 24,44 h 96 c 4.41797,0 8,3.582031 8,8 v 72 c 0,4.41797 -3.58203,8 -8,8 H 24 c -4.417969,0 -8,-3.58203 -8,-8 V 52 c 0,-4.417969 3.582031,-8 8,-8 z m 0,0"
       id="path19" />
  </clipPath>
  <clipPath
     id="g">
    <path
       d="m 16,44 h 52 v 61 H 16 Z m 0,0"
       id="path22" />
  </clipPath>
  <clipPath
     id="h">
    <path
       d="m 24,44 h 96 c 4.41797,0 8,3.582031 8,8 v 72 c 0,4.41797 -3.58203,8 -8,8 H 24 c -4.417969,0 -8,-3.58203 -8,-8 V 52 c 0,-4.417969 3.582031,-8 8,-8 z m 0,0"
       id="path25" />
  </clipPath>
  <clipPath
     id="i">
    <path
       d="M 16,44 H 94 V 80 H 16 Z m 0,0"
       id="path28" />
  </clipPath>
  <clipPath
     id="j">
    <path
       d="m 24,44 h 96 c 4.41797,0 8,3.582031 8,8 v 72 c 0,4.41797 -3.58203,8 -8,8 H 24 c -4.417969,0 -8,-3.58203 -8,-8 V 52 c 0,-4.417969 3.582031,-8 8,-8 z m 0,0"
       id="path31" />
  </clipPath>
  <clipPath
     id="k">
    <path
       d="M 16,44 H 81 V 92 H 16 Z m 0,0"
       id="path34" />
  </clipPath>
  <clipPath
     id="l">
    <path
       d="m 24,44 h 96 c 4.41797,0 8,3.582031 8,8 v 72 c 0,4.41797 -3.58203,8 -8,8 H 24 c -4.417969,0 -8,-3.58203 -8,-8 V 52 c 0,-4.417969 3.582031,-8 8,-8 z m 0,0"
       id="path37" />
  </clipPath>
  <clipPath
     id="m">
    <rect
       height="152"
       width="192"
       id="rect40"
       x="0"
       y="0" />
  </clipPath>
  <linearGradient
     id="n"
     gradientUnits="userSpaceOnUse">
    <stop
       offset="0"
       stop-color="#9a9996"
       id="stop43" />
    <stop
       offset="0.5"
       stop-color="#ffffff"
       id="stop45" />
    <stop
       offset="1"
       stop-color="#c0bfbc"
       id="stop47" />
  </linearGradient>
  <linearGradient
     id="o"
     gradientTransform="matrix(-1.259535,1.259535,3.18198,3.18198,-403.79577,-697.95689)"
     x1="46"
     x2="46"
     xlink:href="#n"
     y1="232"
     y2="228" />
  <linearGradient
     id="p"
     gradientTransform="matrix(2.519067,-2.519067,-3.18198,-3.18198,889.6779,1025.0858)"
     x1="46"
     x2="46"
     xlink:href="#n"
     y1="232"
     y2="228" />
  <linearGradient
     id="q"
     gradientTransform="matrix(-1.723572,-1.723572,-3.18198,3.18198,1118.7812,-521.35637)"
     x1="46"
     x2="46"
     xlink:href="#n"
     y1="232"
     y2="228" />
  <linearGradient
     id="r"
     gradientTransform="matrix(-1.028184,-1.028184,-3.18198,3.18198,1014.2499,-443.45108)"
     x1="46"
     x2="46"
     xlink:href="#n"
     y1="232"
     y2="228" />
  <linearGradient
     id="s"
     gradientUnits="userSpaceOnUse">
    <stop
       offset="0"
       stop-color="#241f31"
       id="stop54" />
    <stop
       offset="0.5"
       stop-color="#3d3846"
       id="stop56" />
    <stop
       offset="1"
       stop-color="#241f31"
       id="stop58" />
  </linearGradient>
  <linearGradient
     id="t"
     gradientTransform="matrix(3.18198,-3.18198,3.299832,3.299832,-325.01325,317.39023)"
     x1="81.999992"
     x2="81.999992"
     xlink:href="#s"
     y1="47.000011"
     y2="65.000015" />
  <linearGradient
     id="u"
     gradientUnits="userSpaceOnUse">
    <stop
       offset="0"
       stop-color="#f5c211"
       id="stop62" />
    <stop
       offset="0.5"
       stop-color="#f6d32d"
       id="stop64" />
    <stop
       offset="1"
       stop-color="#e5a50a"
       id="stop66" />
  </linearGradient>
  <linearGradient
     id="v"
     gradientTransform="matrix(3.18198,-3.18198,3.299832,3.299832,-286.82947,279.20647)"
     x1="81.999992"
     x2="81.999992"
     xlink:href="#u"
     y1="47.000011"
     y2="65.000015" />
  <linearGradient
     id="w"
     gradientTransform="matrix(3.18198,-3.18198,3.299832,3.299832,-210.46194,202.83893)"
     x1="81.999969"
     x2="81.999969"
     xlink:href="#u"
     y1="47.000011"
     y2="65.000015" />
  <linearGradient
     id="x"
     gradientTransform="matrix(3.18198,-3.18198,3.299832,3.299832,-248.64571,241.0227)"
     x1="81.999969"
     x2="81.999969"
     xlink:href="#s"
     y1="47.000011"
     y2="65.000015" />
  <linearGradient
     id="y"
     gradientTransform="matrix(1.818276,-1.818276,2.23917,2.23917,-1247.7455,541.79515)"
     gradientUnits="userSpaceOnUse"
     x1="483.44662"
     x2="497.44662"
     y1="288.67099"
     y2="288.67099">
    <stop
       offset="0"
       stop-color="#865e3c"
       id="stop72" />
    <stop
       offset="0.5"
       stop-color="#b5835a"
       id="stop74" />
    <stop
       offset="1"
       stop-color="#865e3c"
       id="stop76" />
  </linearGradient>
  <path
     d="m 48,84.00586 h 288 c 13.25391,0 24,10.746092 24,24 v 180 c 0,13.25391 -10.74609,24 -24,24 H 48 c -13.253907,0 -24,-10.74609 -24,-24 v -180 c 0,-13.253908 10.746093,-24 24,-24 z m 0,0"
     fill="#d5d3cf"
     id="path79"
     style="stroke-width:3" />
  <path
     d="m 48,42.00586 h 288 c 13.25391,0 24,10.746093 24,24 v 216 c 0,13.25391 -10.74609,24 -24,24 H 48 c -13.253907,0 -24,-10.74609 -24,-24 v -216 c 0,-13.253907 10.746093,-24 24,-24 z m 0,0"
     fill="#fafafa"
     id="path81"
     style="stroke-width:3" />
  <g
     clip-path="url(#a)"
     id="g87"
     transform="matrix(3,0,0,3,0,-41.994138)">
    <g
       clip-path="url(#b)"
       id="g85">
      <path
         d="M 8,28 H 120 V 44 H 8 Z m 0,0"
         fill="#ebebeb"
         id="path83" />
    </g>
  </g>
  <path
     d="m 351,66.00586 c 0,8.285157 -6.71484,15 -15,15 -8.28516,0 -15,-6.714843 -15,-15 0,-8.285157 6.71484,-15 15,-15 8.28516,0 15,6.714843 15,15 z m 0,0"
     fill="#d8d8d8"
     id="path89"
     style="stroke-width:3" />
  <path
     d="m 328.51173,58.50586 h 1.27734 c 0.31641,0.0117 0.64452,0.16407 0.86718,0.386718 L 336,64.248046 l 5.39064,-5.355468 c 0.32811,-0.28125 0.5625,-0.375 0.85545,-0.386718 H 343.5 v 1.253907 c 0,0.351561 -0.0468,0.679686 -0.31641,0.9375 l -5.34375,5.34375 5.30859,5.320311 c 0.2343,0.23439 0.35157,0.5625 0.35157,0.890625 v 1.253907 h -1.25391 c -0.32811,0 -0.65625,-0.11718 -0.89061,-0.351564 L 336,67.798828 l -5.34375,5.355468 c -0.23436,0.234378 -0.57423,0.351564 -0.90234,0.351564 H 328.5 v -1.253907 c 0,-0.328125 0.129,-0.65625 0.35157,-0.890625 l 5.35545,-5.320311 -5.35545,-5.34375 c -0.2577,-0.24609 -0.375,-0.585939 -0.35157,-0.9375 z m 0,0"
     fill="#444444"
     id="path91"
     style="stroke-width:3" />
  <g
     clip-path="url(#m)"
     mask="url(#d)"
     transform="matrix(3,0,0,3,-24,-89.994138)"
     id="g117">
    <g
       clip-path="url(#e)"
       id="g97">
      <g
         clip-path="url(#f)"
         id="g95">
        <path
           d="m -25.410156,49.503906 12.726562,-12.730468 67.882813,67.882812 -12.726563,12.72656 z m 0,0"
           id="path93" />
      </g>
    </g>
    <g
       clip-path="url(#g)"
       id="g103">
      <g
         clip-path="url(#h)"
         id="g101">
        <path
           d="M -12.683594,36.773438 0.046875,24.046875 67.929688,91.929688 55.199219,104.65625 Z m 0,0"
           fill="#f6d32d"
           id="path99" />
      </g>
    </g>
    <g
       clip-path="url(#i)"
       id="g109">
      <g
         clip-path="url(#j)"
         id="g107">
        <path
           d="M 12.773438,11.320312 25.5,-1.410156 93.382812,66.472656 80.65625,79.199219 Z m 0,0"
           fill="#f6d32d"
           id="path105" />
      </g>
    </g>
    <g
       clip-path="url(#k)"
       id="g115">
      <g
         clip-path="url(#l)"
         id="g113">
        <path
           d="M 0.046875,24.046875 12.773438,11.320312 80.65625,79.199219 67.929688,91.929688 Z m 0,0"
           id="path111" />
      </g>
    </g>
  </g>
  <path
     d="M 262.82812,86.396484 237.375,111.86133 c -3.51562,3.51562 -3.51562,9.21094 0,12.72656 3.51563,3.51563 9.21094,3.51563 12.72656,0 l 25.45313,-25.453124 c 3.51562,-3.515625 3.51562,-9.222657 0,-12.738282 -3.51563,-3.515624 -9.21094,-3.515624 -12.72657,0 z m 0,0"
     fill="url(#o)"
     id="path119"
     style="fill:url(#o);stroke-width:3" />
  <path
     d="m 228.89063,234.89648 91.21876,-91.21875 c 3.50388,-3.51562 3.50388,-9.21093 0,-12.72656 -3.51564,-3.51562 -9.22266,-3.51562 -12.7383,0 l -91.20703,91.21875 c -3.51562,3.51562 -3.51562,9.21094 0,12.72656 3.50391,3.51563 9.21094,3.51563 12.72657,0 z m 0,0"
     fill="url(#p)"
     id="path121"
     style="fill:url(#p);stroke-width:3" />
  <path
     d="m 269.19141,83.759767 v 21.738283 l 31.82811,31.8164 h 21.72657 c 0,-2.29687 -0.87891,-4.60547 -2.6367,-6.36328 l -44.5547,-44.542968 c -1.75782,-1.769528 -4.06641,-2.648435 -6.36328,-2.648435 z m 0,0"
     fill="url(#q)"
     id="path123"
     style="fill:url(#q);stroke-width:3" />
  <path
     d="m 235.25391,228.5332 h -21.73829 c 0,2.29688 0.87891,4.60547 2.64844,6.36328 l 29.69532,29.69531 c 3.52734,3.52734 9.19921,3.52734 12.72656,0 3.52734,-3.52734 3.52734,-9.19921 0,-12.72656 z m 0,0"
     fill="url(#r)"
     id="path125"
     style="fill:url(#r);stroke-width:3" />
  <path
     d="m 84.632814,217.92773 12.738279,-12.72656 12.726567,-12.73828 59.39062,59.40234 -25.45312,25.45313 c -7.05469,7.05468 -18.41016,7.05468 -25.45313,0 l -33.949216,-33.9375 c -7.042971,-7.05469 -7.042971,-18.41016 0,-25.45313 z m 0,0"
     fill="url(#t)"
     id="path127"
     style="fill:url(#t);stroke-width:3" />
  <path
     d="m 110.09766,192.46289 38.17968,-38.17969 59.40235,59.40235 -38.19141,38.17968 z m 0,0"
     fill="url(#v)"
     id="path129"
     style="fill:url(#v);stroke-width:3" />
  <path
     d="m 199.18359,103.37695 12.73828,-12.726559 c 7.04297,-7.054688 18.39844,-7.054688 25.45313,0 l 33.9375,33.937499 c 7.05469,7.05469 7.05469,18.39844 0,25.45313 l -25.45312,25.45312 -59.40235,-59.39062 z m 0,0"
     fill="url(#w)"
     id="path131"
     style="fill:url(#w);stroke-width:3" />
  <path
     d="m 148.27734,154.2832 38.17969,-38.17968 59.40235,59.39062 -38.17969,38.19141 z m 0,0"
     fill="url(#x)"
     id="path133"
     style="fill:url(#x);stroke-width:3" />
  <path
     d="m 250.10156,256.10742 c 7.03125,-7.03125 18.42188,-7.03125 25.45313,0 l 55.16015,55.14844 c 7.01955,7.03125 7.01955,18.43359 0,25.46484 -7.03125,7.03125 -18.43359,7.03125 -25.46484,0 l -55.14844,-55.16016 c -7.03125,-7.03125 -7.03125,-18.42186 0,-25.45312 z m 0,0"
     fill="url(#y)"
     id="path135"
     style="fill:url(#y);stroke-width:3" />
  <g
     fill="#865e3c"
     id="g143"
     transform="matrix(3,0,0,3,0,-41.994138)">
    <path
       d="m 96.800781,117.04297 4.242189,-4.24219 c 0.39062,-0.39062 1.02344,-0.39062 1.41406,0 0.39063,0.39063 0.39063,1.02344 0,1.41406 l -4.242186,4.2461 c -0.390625,0.38672 -1.023438,0.38672 -1.414063,0 -0.390625,-0.39063 -0.390625,-1.02735 0,-1.41797 z m 0,0"
       id="path137" />
    <path
       d="m 99.628906,119.875 4.242184,-4.24609 c 0.39063,-0.39063 1.02344,-0.39063 1.41407,0 0.39062,0.39062 0.39062,1.02343 0,1.41406 l -4.24219,4.24609 c -0.39063,0.39063 -1.02344,0.39063 -1.414064,0 -0.390625,-0.39062 -0.390625,-1.02343 0,-1.41406 z m 0,0"
       id="path139" />
    <path
       d="m 102.45703,122.70313 4.24219,-4.24219 c 0.39062,-0.39063 1.02734,-0.39063 1.41797,0 0.39062,0.38672 0.39062,1.02344 0,1.41406 l -4.2461,4.24219 c -0.39062,0.39062 -1.02343,0.39062 -1.41406,0 -0.39062,-0.39063 -0.39062,-1.02344 0,-1.41406 z m 0,0"
       id="path141" />
  </g>
</svg>
